<svg width="379" height="96" viewBox="0 0 379 96" fill="none" xmlns="http://www.w3.org/2000/svg">
<path d="M122.427 26.84H114.031L95.243 50.166V8.91299H88.798V76.01H95.243V60.156L102.136 51.881L115.829 76.01H123.375L106.669 46.534L122.427 26.84Z" fill="#005A7E"/>
<mask id="mask0_126_14" style="mask-type:luminance" maskUnits="userSpaceOnUse" x="0" y="0" width="381" height="96">
<path d="M380.377 0.968994H0.923996V95.832H380.377V0.968994Z" fill="white"/>
</mask>
<g mask="url(#mask0_126_14)">
<path d="M181.513 67.717V39.838C181.513 30.561 176.453 25.657 166.884 25.657C159.218 25.657 152.999 28.853 148.439 31.637L146.869 32.594L150.291 38.376L151.946 37.188C154.732 35.19 160.357 31.837 166.703 31.837C172.318 31.837 174.668 33.847 175.066 39.004V43.229C165.581 43.305 146.007 44.452 146.007 61.653C146.007 70.697 152.431 77.009 161.632 77.009C166.417 77.009 171.155 75.349 175.757 72.062C176.263 73.704 177.333 75.027 179.445 76.086L181.184 76.958L184.019 70.639L182.014 70.011C181.973 69.998 181.616 69.824 181.513 67.717ZM175.066 49.412V65.094C170.603 68.591 166.896 71.016 161.632 71.016C156.587 71.016 152.634 66.903 152.634 61.654C152.634 51.385 164.238 49.577 175.066 49.412Z" fill="#005A7E"/>
</g>
<mask id="mask1_126_14" style="mask-type:luminance" maskUnits="userSpaceOnUse" x="0" y="0" width="381" height="96">
<path d="M380.377 0.968994H0.923996V95.832H380.377V0.968994Z" fill="white"/>
</mask>
<g mask="url(#mask1_126_14)">
<path d="M245.053 32.816V26.84H212.263V33.011H237.088L211.359 70.03V76.01H245.507V69.834H219.328L245.053 32.816Z" fill="#005A7E"/>
</g>
<mask id="mask2_126_14" style="mask-type:luminance" maskUnits="userSpaceOnUse" x="0" y="0" width="381" height="96">
<path d="M380.377 0.968994H0.923996V95.832H380.377V0.968994Z" fill="white"/>
</mask>
<g mask="url(#mask2_126_14)">
<path d="M304.975 32.816V26.84H272.188V33.011H297.01L271.282 70.03V76.01H305.429V69.834H279.25L304.975 32.816Z" fill="#005A7E"/>
</g>
<mask id="mask3_126_14" style="mask-type:luminance" maskUnits="userSpaceOnUse" x="0" y="0" width="381" height="96">
<path d="M380.377 0.968994H0.923996V95.832H380.377V0.968994Z" fill="white"/>
</mask>
<g mask="url(#mask3_126_14)">
<path d="M366.762 70.011C366.721 69.997 366.364 69.823 366.262 67.717V39.838C366.262 30.561 361.201 25.657 351.632 25.657C343.969 25.657 337.751 28.853 333.188 31.637L331.617 32.594L335.039 38.376L336.693 37.188C339.48 35.19 345.103 31.837 351.451 31.837C357.067 31.837 359.416 33.848 359.812 39.004V43.229C350.328 43.305 330.755 44.452 330.755 61.653C330.755 70.697 337.182 77.009 346.379 77.009C351.163 77.009 355.904 75.347 360.503 72.06C361.013 73.702 362.083 75.027 364.189 76.086L365.93 76.958L368.771 70.637L366.762 70.011ZM359.812 49.412V65.094C355.351 68.591 351.645 71.016 346.379 71.016C341.336 71.016 337.382 66.903 337.382 61.654C337.382 51.385 348.987 49.577 359.812 49.412Z" fill="#005A7E"/>
</g>
<mask id="mask4_126_14" style="mask-type:luminance" maskUnits="userSpaceOnUse" x="0" y="0" width="381" height="96">
<path d="M380.377 0.968994H0.923996V95.832H380.377V0.968994Z" fill="white"/>
</mask>
<g mask="url(#mask4_126_14)">
<path d="M38.896 44.819H33.471V77.009H38.896V44.819Z" fill="#005A7E"/>
</g>
<mask id="mask5_126_14" style="mask-type:luminance" maskUnits="userSpaceOnUse" x="33" y="44" width="6" height="34">
<path d="M38.896 44.819H33.471V77.009H38.896V44.819Z" fill="white"/>
</mask>
<g mask="url(#mask5_126_14)">
<path d="M38.896 44.819H33.471V77.009H38.896V44.819Z" fill="#005A7E"/>
</g>
<mask id="mask6_126_14" style="mask-type:luminance" maskUnits="userSpaceOnUse" x="0" y="0" width="381" height="96">
<path d="M380.377 0.968994H0.923996V95.832H380.377V0.968994Z" fill="white"/>
</mask>
<g mask="url(#mask6_126_14)">
<path d="M14.395 36.708H8.97099V77.01H14.395V36.708Z" fill="#005A7E"/>
</g>
<mask id="mask7_126_14" style="mask-type:luminance" maskUnits="userSpaceOnUse" x="8" y="36" width="7" height="42">
<path d="M14.394 36.708H8.97V77.01H14.394V36.708Z" fill="white"/>
</mask>
<g mask="url(#mask7_126_14)">
<path d="M14.395 36.708H8.97101V77.01H14.395V36.708Z" fill="#005A7E"/>
</g>
<mask id="mask8_126_14" style="mask-type:luminance" maskUnits="userSpaceOnUse" x="0" y="0" width="381" height="96">
<path d="M380.377 0.968994H0.923996V95.832H380.377V0.968994Z" fill="white"/>
</mask>
<g mask="url(#mask8_126_14)">
<path d="M51.193 20.855H45.779V77.009H51.193V20.855Z" fill="#005A7E"/>
</g>
<mask id="mask9_126_14" style="mask-type:luminance" maskUnits="userSpaceOnUse" x="45" y="20" width="7" height="58">
<path d="M51.192 20.855H45.778V77.009H51.192V20.855Z" fill="white"/>
</mask>
<g mask="url(#mask9_126_14)">
<path d="M51.193 20.855H45.779V77.009H51.193V20.855Z" fill="#005A7E"/>
</g>
<mask id="mask10_126_14" style="mask-type:luminance" maskUnits="userSpaceOnUse" x="0" y="0" width="381" height="96">
<path d="M380.377 0.968994H0.923996V95.832H380.377V0.968994Z" fill="white"/>
</mask>
<g mask="url(#mask10_126_14)">
<path d="M63.492 8.76199H58.077V77.01H63.492V8.76199Z" fill="#005A7E"/>
</g>
<mask id="mask11_126_14" style="mask-type:luminance" maskUnits="userSpaceOnUse" x="58" y="8" width="6" height="70">
<path d="M63.494 8.763H58.077V77.01H63.494V8.763Z" fill="white"/>
</mask>
<g mask="url(#mask11_126_14)">
<path d="M63.492 8.76199H58.077V77.01H63.492V8.76199Z" fill="#005A7E"/>
</g>
<mask id="mask12_126_14" style="mask-type:luminance" maskUnits="userSpaceOnUse" x="0" y="0" width="381" height="96">
<path d="M380.377 0.968994H0.923996V95.832H380.377V0.968994Z" fill="white"/>
</mask>
<g mask="url(#mask12_126_14)">
<path d="M26.637 15.047H21.216V77.009H26.637V15.047Z" fill="#005A7E"/>
</g>
<mask id="mask13_126_14" style="mask-type:luminance" maskUnits="userSpaceOnUse" x="21" y="15" width="6" height="63">
<path d="M26.637 15.047H21.216V77.009H26.637V15.047Z" fill="white"/>
</mask>
<g mask="url(#mask13_126_14)">
<path d="M26.637 15.047H21.216V77.009H26.637V15.047Z" fill="#005A7E"/>
</g>
</svg>
